{
	"asset":{
		"generator":"Khronos glTF Blender I/O v3.5.30",
		"version":"2.0"
	},
	"scene":0,
	"scenes":[
		{
			"name":"Scene",
			"nodes":[
				0
			]
		}
	],
	"nodes":[
		{
			"mesh":0,
			"name":"Cylinder085",
			"scale":[
				2.2309141159057617,
				2.2309141159057617,
				2.2309141159057617
			],
			"translation":[
				-41.117530822753906,
				-18.420005798339844,
				-1.2921524047851562
			]
		}
	],
	"materials":[
		{
			"emissiveTexture":{
				"index":0
			},
			"name":"Material_0",
			"normalTexture":{
				"index":1
			},
			"pbrMetallicRoughness":{
				"baseColorTexture":{
					"index":2
				},
				"metallicFactor":0
			}
		}
	],
	"meshes":[
		{
			"name":"Cylinder085",
			"primitives":[
				{
					"attributes":{
						"POSITION":0,
						"TEXCOORD_0":1,
						"NORMAL":2
					},
					"indices":3,
					"material":0
				}
			]
		}
	],
	"textures":[
		{
			"sampler":0,
			"source":0
		},
		{
			"sampler":0,
			"source":1
		},
		{
			"sampler":0,
			"source":2
		}
	],
	"images":[
		{
			"mimeType":"image/jpeg",
			"name":"Lifecraft_LifeCraft_emission",
			"uri":"Lifecraft_LifeCraft_emission.jpg"
		},
		{
			"mimeType":"image/png",
			"name":"Lifecraft_LifeCraft_normal",
			"uri":"Lifecraft_LifeCraft_normal.png"
		},
		{
			"mimeType":"image/png",
			"name":"Lifecraft_LifeCraft_baseColor",
			"uri":"Lifecraft_LifeCraft_baseColor.png"
		}
	],
	"accessors":[
		{
			"bufferView":0,
			"componentType":5126,
			"count":36535,
			"max":[
				33.40406036376953,
				75.57084655761719,
				62.343055725097656
			],
			"min":[
				-65.32402038574219,
				14.96449089050293,
				-59.093849182128906
			],
			"type":"VEC3"
		},
		{
			"bufferView":1,
			"componentType":5126,
			"count":36535,
			"type":"VEC2"
		},
		{
			"bufferView":2,
			"componentType":5126,
			"count":36535,
			"type":"VEC3"
		},
		{
			"bufferView":3,
			"componentType":5123,
			"count":67320,
			"type":"SCALAR"
		}
	],
	"bufferViews":[
		{
			"buffer":0,
			"byteLength":438420,
			"byteOffset":0,
			"target":34962
		},
		{
			"buffer":0,
			"byteLength":292280,
			"byteOffset":438420,
			"target":34962
		},
		{
			"buffer":0,
			"byteLength":438420,
			"byteOffset":730700,
			"target":34962
		},
		{
			"buffer":0,
			"byteLength":134640,
			"byteOffset":1169120,
			"target":34963
		}
	],
	"samplers":[
		{
			"magFilter":9729,
			"minFilter":9987
		}
	],
	"buffers":[
		{
			"byteLength":1303760,
			"uri":"Ambulance.bin"
		}
	]
}
